# xmcd CD database file
#
# Track frame offsets:
#	150
#	12706
#	24788
#	35836
#	50869
#	63721
#	75557
#	86957
#	98412
#	111326
#	125124
#	137430
#	162674
#	180242
#	188850
#	200340
#	211820
#
# Disc length: 3020 seconds
#
# Revision: 1
# Processed by: cddbd v1.5.2PL0 Copyright (c) Steve Scherf et al.
# Submitted via: CDex 1.51
#
DISCID=f10bca11
DTITLE=Curtis, King - King Of The Sax
DYEAR=2004
DGENRE=Jazz
TTITLE0=Soul Twist
TTITLE1=Twisting Time
TTITLE2=What'd I Say, Pt. 1
TTITLE3=What'd I Say, Pt. 2
TTITLE4=I Know (You Don't Love Me No More)
TTITLE5=Sack O' Woe (Twist)
TTITLE6=Camp Meetin' (aka Harmonica Twist)
TTITLE7=Wobble Twist
TTITLE8=Irresistible You
TTITLE9=Big Dipper (aka Mr. Crow)
TTITLE10=Twisting With The King
TTITLE11=Midnight Blue
TTITLE12=Hot Potato (Piping Hot)
TTITLE13=Davis, Bobby, and The Rhythm Rockers - The Monkey Shout (with King Curtis)
TTITLE14=Davis, Bobby, and The Rhythm Rockers - Get With It (with King Curtis)
TTITLE15=Hamner, Curley - Air Raid (with King Curtis)
TTITLE16=Soul Twist [alt. take]
EXTD=YEAR: 2004
EXTT0=
EXTT1=
EXTT2=
EXTT3=
EXTT4=
EXTT5=
EXTT6=
EXTT7=
EXTT8=
EXTT9=
EXTT10=
EXTT11=
EXTT12=
EXTT13=
EXTT14=
EXTT15=
EXTT16=
PLAYORDER=
